# xmcd
#
# Track frame offsets:
#	150
#	18429
#	35377
#	51918
#	68466
#	84883
#	98806
#	116412
#	137782
#	156652
#	176494
#	192899
#	214124
#	229980
#	250320
#	272317
#	287520
#	304316
#	322743
#	340358
#
# Disc length: 4779 seconds
#
# Revision: 1
# Processed by: cddbd v1.5.2PL0 Copyright (c) Steve Scherf et al.
# Submitted via: audiograbber 1.83.01
#
DISCID=1412a914
DTITLE=Various Artist - R and B Karaoke
DYEAR=1900
DGENRE=
TTITLE0=Pharrell Williams - Happy
TTITLE1=Justin Timberlake - SexyBack
TTITLE2=Bruno Mars - Just The Way You Are
TTITLE3=Destiny's Child - Independent Woman
TTITLE4=TLC - Waterfalls
TTITLE5=Kelis - Trick Me
TTITLE6=Black Eyed Peas - Where Is The Love?
TTITLE7=Sean Paul/Sasha - I'm Still In Love With You
TTITLE8=Akon - Lonely
TTITLE9=Beyonce - If I Were A Boy
TTITLE10=Jamelia - Superstar
TTITLE11=Alicia Keys - Woman's Worth
TTITLE12=Christina Aguilera - What A Girl Wants
TTITLE13=Eminem/Rihanna - The Monster
TTITLE14=Justin Timberlake - What Goes Around...Comes Around
TTITLE15=JLS - Beat Again
TTITLE16=Boys II Men - I'll Make Love To You
TTITLE17=Usher - Burn
TTITLE18=Shakira/Wyclef Jean - Hips Don't Lie
TTITLE19=Shaggy/RikRok - It Wasn't Me
EXTD=
EXTT0=
EXTT1=
EXTT2=
EXTT3=
EXTT4=
EXTT5=
EXTT6=
EXTT7=
EXTT8=
EXTT9=
EXTT10=
EXTT11=
EXTT12=
EXTT13=
EXTT14=
EXTT15=
EXTT16=
EXTT17=
EXTT18=
EXTT19=
PLAYORDER=
